<?xml version="1.0" encoding="utf-8"?>
<!-- Generator: Adobe Illustrator 25.3.1, SVG Export Plug-In . SVG Version: 6.00 Build 0)  -->
<svg version="1.1" xmlns="http://www.w3.org/2000/svg" xmlns:xlink="http://www.w3.org/1999/xlink" x="0px" y="0px"
	 viewBox="0 0 120.456 299.766" style="enable-background:new 0 0 120.456 299.766;" xml:space="preserve">
<g id="Layer_1" style="display:none;">
	<g style="display:inline;opacity:0.24;">
		<g>
			<path d="M16.976,94.855c2.113,0.643,3.393,2.704,4.486,4.486c1.459,2.378,2.875,4.79,4.216,7.236
				c2.754,5.023,5.064,10.335,5.807,16.063c0.789,6.075,0.206,12.286-0.402,18.35c-0.6,5.993-1.421,11.959-2.387,17.903
				c-3.936,24.232-10.165,48.027-13.986,72.279c-1.08,6.852-1.979,13.737-2.58,20.648c-0.587,6.75-0.45,13.694-2.408,20.238
				c1.393-0.368,2.786-0.735,4.178-1.103c-0.979-0.79-1.492-1.604-1.733-2.841c-0.251-1.285-1.864-2.14-3.075-1.746
				c-4.535,1.474-9.265,1.609-13.864,0.337c-0.222,1.637-0.443,3.274-0.665,4.911c4.019,0.097,7.972,0.602,11.885,1.526
				c1.42,0.335,2.565-0.447,3.075-1.746c0.695-1.771,0.723-3.703,0.213-5.526c-0.865-3.094-5.691-1.78-4.821,1.329
				c0.289,1.035,0.178,1.871-0.213,2.868c1.025-0.582,2.05-1.164,3.075-1.746c-4.332-1.023-8.765-1.597-13.214-1.705
				c-2.836-0.069-3.371,4.162-0.665,4.911c5.412,1.497,11.178,1.4,16.523-0.337c-1.025-0.582-2.05-1.164-3.075-1.746
				c0.383,1.964,1.46,3.789,3.019,5.047c1.445,1.166,3.599,0.834,4.178-1.103c1.817-6.072,1.889-12.459,2.357-18.731
				c0.466-6.237,1.184-12.454,2.095-18.641c1.844-12.528,4.394-24.938,6.996-37.327c2.604-12.4,5.264-24.793,7.335-37.296
				c1.044-6.303,1.939-12.633,2.612-18.987c0.66-6.23,1.29-12.576,0.652-18.834c-0.714-6.999-3.234-13.386-6.594-19.519
				c-1.516-2.767-3.087-5.544-4.815-8.186c-1.707-2.61-3.812-4.903-6.875-5.835C15.22,89.095,13.901,93.92,16.976,94.855
				L16.976,94.855z"/>
		</g>
	</g>
	<g style="display:inline;opacity:0.24;">
		<g>
			<path d="M44.544,92.312c-0.818,6.724-1.637,13.454-2.051,20.218c-0.406,6.615-0.234,13.197,0.086,19.81
				c0.316,6.537,0.494,13.051,0.074,19.588c-0.42,6.539-1.29,13.036-2.416,19.489c-2.246,12.876-5.341,25.601-8.217,38.346
				c-2.871,12.722-6.197,25.497-7.129,38.548c-0.483,6.765-0.182,13.858,2.441,20.2c2.309,5.583,6.267,10.601,11.81,13.238
				c0.421-1.553,0.841-3.106,1.262-4.659c-9.222-0.809-18.445-1.617-27.667-2.426c-2.306-0.202-4.611-0.404-6.917-0.606
				c-1.786-0.157-3.579-0.379-5.375-0.294c-3.226,0.153-6.82,1.204-8.253,4.403c-0.552,1.231-0.356,2.688,0.897,3.42
				c1.068,0.625,2.866,0.341,3.42-0.897c0.463-1.032,0.971-1.357,2.063-1.652c1.219-0.329,2.517-0.331,3.831-0.263
				c4.106,0.21,8.214,0.704,12.31,1.063c8.564,0.751,17.127,1.502,25.691,2.252c2.433,0.213,3.461-3.612,1.262-4.659
				c-10.325-4.912-12.402-17.201-11.874-27.5c0.649-12.664,3.946-25.085,6.726-37.403c5.662-25.092,12.335-50.291,11.245-76.226
				c-0.306-7.273-0.735-14.514-0.379-21.795c0.363-7.429,1.263-14.817,2.161-22.196c0.163-1.343-1.266-2.5-2.5-2.5
				C45.557,89.812,44.707,90.965,44.544,92.312L44.544,92.312z"/>
		</g>
	</g>
	<g style="display:inline;opacity:0.24;">
		<g>
			<path d="M6.443,85.945c8.907,1.82,17.325,6.01,26.509,6.437c7.627,0.354,15.482-2.014,20.153-8.343
				c-1.523-0.642-3.046-1.284-4.569-1.926c-1.285,5.768-2.569,11.536-3.854,17.304c-0.698,3.135,4.121,4.474,4.821,1.329
				c1.285-5.768,2.569-11.536,3.854-17.304c0.642-2.882-2.916-4.167-4.569-1.926c-3.79,5.135-10.964,6.281-16.917,5.798
				c-8.285-0.673-16.005-4.535-24.099-6.189c-1.322-0.27-2.701,0.383-3.075,1.746C4.357,84.106,5.114,85.674,6.443,85.945
				L6.443,85.945z"/>
		</g>
	</g>
	<g style="display:inline;opacity:0.24;">
		<g>
			<path d="M80.616,149.093c-8.529,0.215-17.049,0.732-25.54,1.565c-3.373,0.331-7.664,0.303-10.075,3.113
				c-1.311,1.528-1.639,3.405-1.809,5.348c-0.162,1.853-0.237,3.718-0.215,5.578c0.087,7.425,1.893,14.625,6.391,20.626
				c3.639,4.854,8.879,9.317,10.402,15.407c0.33,1.321,0.624,3.148-0.546,4.147c-1.226,1.047-3.182,1.262-4.702,1.497
				c-4.482,0.691-9.163,0.624-13.635-0.104c-0.222,1.637-0.443,3.274-0.665,4.911c2.056-0.055,4.168,0.084,6.141,0.709
				c1.303,0.413,1.387,2.592,1.678,3.761c0.818,3.286,1.513,6.898,0.478,10.215c-0.923,2.959-3.551,4.656-5.896,6.433
				c-2.783,2.109-5.513,4.589-6.099,8.222c-1.328,8.226,6.63,14.636,12.554,18.876c6.112,4.374,13.091,7.605,20.346,9.554
				c8.375,2.25,17.079,2.724,25.652,1.486c1.061-0.153,1.842-1.415,1.835-2.411c-0.023-3.378,0.361-6.681,1.176-9.959
				c0.777-3.123-4.044-4.455-4.821-1.329c-0.918,3.689-1.38,7.486-1.355,11.288c0.612-0.804,1.224-1.607,1.835-2.411
				c-14.447,2.086-29.553-1.772-41.493-10.076c-2.993-2.082-6.003-4.464-8.301-7.314c-1.956-2.427-3.632-5.803-1.742-8.725
				c1.579-2.441,4.512-3.92,6.682-5.76c2.888-2.449,4.562-5.652,5.005-9.404c0.492-4.17-0.537-8.499-1.696-12.483
				c-0.703-2.418-2.056-4.041-4.51-4.783c-2.384-0.721-4.99-0.954-7.47-0.888c-1.235,0.033-2.307,0.925-2.455,2.168
				c-0.133,1.121,0.548,2.541,1.791,2.743c4.156,0.677,8.35,0.927,12.55,0.563c3.582-0.31,7.727-0.673,10.541-3.167
				c2.94-2.607,2.731-6.873,1.588-10.296c-1.083-3.242-2.967-6.033-5.063-8.698c-1.936-2.461-4.093-4.751-5.929-7.29
				c-2.084-2.883-3.544-6.006-4.364-9.471c-0.839-3.544-1.008-7.202-0.863-10.832c0.054-1.345-0.153-3.461,0.609-4.658
				c0.602-0.945,2.156-1.109,3.163-1.244c9.512-1.273,19.24-1.663,28.826-1.905C83.828,154.011,83.84,149.011,80.616,149.093
				L80.616,149.093z"/>
		</g>
	</g>
	<g style="display:inline;opacity:0.24;">
		<g>
			<path d="M80.981,148.17c1.091,4.779,2.103,9.575,3.028,14.388c0.235,1.222,1.145,3.921,0.348,5.048
				c0.129-0.183-0.154,0.116-0.168,0.122c-0.153,0.057-0.513,0.023-0.694,0.02c-0.998-0.021-2.001-0.211-2.975-0.413
				c-8.225-1.708-15.398-6.539-23.591-8.355c-2.001-0.444-4.605-1.147-6.578-0.339c-2.362,0.967-2.562,3.642-2.312,5.86
				c0.49,4.356,2.882,8.168,5.9,11.254c3.081,3.15,6.846,5.525,10.031,8.561c2.896,2.761,5.033,6.132,6.16,9.982
				c0.614,2.097,0.928,4.235,0.917,6.42c-0.009,1.872-0.033,4.42-1.275,5.948c-1.345,1.654-4.22,2.435-6.175,3.026
				c-2.442,0.738-4.923,1.137-7.471,1.217c-1.235,0.038-2.307,0.921-2.455,2.168c-0.158,1.33,0.605,2.256,1.791,2.743
				c1.614,0.662,2.025,3.299,1.809,4.84c-0.427,3.045-2.377,5.704-3.63,8.442c-2.794,6.104-4.095,13.33-2.76,19.982
				c0.725,3.611,3.315,5.581,6.324,7.337c2.833,1.653,5.797,3.059,8.841,4.278c6.167,2.47,12.711,3.933,19.331,4.444
				c1.744,0.135,3.493,0.196,5.242,0.183c1.885-0.014,4.047,0.141,5.447-1.356c1.302-1.392,1.436-3.647,1.815-5.431
				c0.448-2.109,0.897-4.218,1.345-6.327c-1.224,0.498-2.448,0.996-3.673,1.494c0.71,0.441,1.117,1.127,1.146,1.961
				c0.112,3.209,5.112,3.224,5,0c-0.091-2.627-1.388-4.889-3.623-6.279c-1.312-0.816-3.34-0.068-3.672,1.494
				c-0.397,1.866-0.793,3.731-1.19,5.597c-0.19,0.892-0.379,1.785-0.569,2.677c-0.09,0.422-0.263,0.881-0.283,1.307
				c-0.031,0.111-0.063,0.222-0.094,0.333c0.242-0.306,0.209-0.318-0.101-0.034c0.368-0.214,0.735-0.429,1.103-0.643
				c-1.065,0.437-2.609,0.215-3.746,0.204c-1.385-0.014-2.769-0.075-4.149-0.181c-2.76-0.213-5.492-0.633-8.194-1.234
				c-5.345-1.19-10.52-3.06-15.354-5.634c-1.212-0.645-2.412-1.323-3.571-2.058c-0.946-0.6-1.853-1.236-2.264-2.325
				c-0.927-2.458-0.687-5.651-0.446-8.211c0.257-2.733,0.96-5.455,1.965-8.006c1.01-2.562,2.511-4.896,3.566-7.44
				c2.152-5.192,1.503-11.859-4.287-14.235c-0.222,1.637-0.443,3.274-0.665,4.911c4.898-0.152,9.761-1.3,14.141-3.525
				c2.237-1.136,3.896-2.77,4.805-5.126c0.782-2.028,0.964-4.381,0.976-6.539c0.024-4.434-1.094-8.852-3.121-12.787
				c-2.075-4.026-5.223-7.178-8.713-9.994c-3.41-2.752-7.16-5.375-9.481-9.181c-1.003-1.645-1.745-3.477-1.774-5.427
				c-0.003-0.229,0.096-0.587,0.018-0.791c-0.324-0.843-0.677,1.166-1.014,0.763c0.103,0.124,1.298,0.079,1.492,0.105
				c1.056,0.142,2.104,0.371,3.136,0.633c8.442,2.139,15.905,7.233,24.612,8.465c2.726,0.386,5.613,0.376,7.312-2.171
				c1.303-1.954,1.137-4.445,0.777-6.65c-0.92-5.648-2.216-11.264-3.489-16.84C85.086,143.705,80.264,145.032,80.981,148.17
				L80.981,148.17z"/>
		</g>
	</g>
	<g style="display:inline;opacity:0.24;">
		<g>
			<path d="M24.725,42.037c-4.065-0.098-8.152,0.313-12.116,1.23c-3.539,0.819-8.288,1.834-9.347,5.891
				c-0.854,3.274,0.373,7.155,1.974,10.007c1.672,2.98,4.131,5.414,6.86,7.428c5.978,4.412,13.805,6.539,21.178,6.503
				c3.746-0.018,7.832-0.399,9.575-4.245c1.544-3.408,1.902-7.62,1.457-11.301c-0.959-7.924-6.522-15.489-14.828-16.628
				c-1.336-0.183-2.684,0.323-3.075,1.746c-0.321,1.167,0.4,2.891,1.746,3.075c5.178,0.71,9.197,4.555,10.639,9.52
				c0.842,2.896,0.892,6.008,0.273,8.954c-0.203,0.964-0.375,2.471-1.143,3.171c-0.795,0.725-2.338,0.635-3.326,0.677
				c-6.036,0.26-12.213-1.109-17.459-4.144c-4.215-2.439-8.305-6.371-9.026-11.416c-0.147-1.03-0.336-2.214,0.65-2.802
				c1.36-0.812,3.213-1.139,4.732-1.507c3.689-0.893,7.443-1.249,11.235-1.157C27.944,47.115,27.943,42.114,24.725,42.037
				L24.725,42.037z"/>
		</g>
	</g>
</g>
<g id="Layer_2">
	<g>
		<path style="stroke:#000000;stroke-width:8;stroke-miterlimit:10;" d="M115.942,294.53c-17.15,1.62-30.86-1.73-41.14-10.06
			c-10.28-8.33-16.22-20.94-17.82-37.8l-5.4-57c-0.64-6.77-3.2-11.81-7.67-15.13c-4.48-3.31-10.47-4.62-17.98-3.91l-2.55-26.97
			c7.51-0.71,13.15-3.11,16.92-7.21c3.77-4.1,5.34-9.53,4.7-16.3l-5.39-56.86c-1.59-16.87,1.87-30.38,10.4-40.54
			c8.53-10.16,21.37-16.05,38.52-17.68l2.55,26.98c-8.15,0.77-14.27,3.36-18.34,7.76c-4.07,4.41-5.76,10.28-5.07,17.6l5.7,60.2
			c1.41,14.86-1.78,26.86-9.57,36.02c9.4,7.81,14.83,19.44,16.29,34.88l5.53,58.39c0.69,7.32,3.46,12.79,8.29,16.4
			c4.83,3.61,11.32,5.03,19.48,4.26L115.942,294.53z"/>
	</g>
	<g>
		<path d="M0,251.255L0,251.255L0,97.643c0-17.108,13.869-30.977,30.977-30.977h0v153.612C30.977,237.387,17.108,251.255,0,251.255z
			"/>
	</g>
</g>
</svg>
