<svg xmlns="http://www.w3.org/2000/svg" viewBox="0 0 219.97 301.54"><defs><style>.a{fill:#231f20;}</style></defs><path class="a" d="M188.27,168.9Q182.49,173,176.38,178a40.24,40.24,0,0,0,7.63,3.6q4.86,1.8,9.61,3.64t8.47,3.46q3.72,1.62,4.4,2.75a13,13,0,0,1,.57,3.49,29.47,29.47,0,0,1-.17,4.36c-.17,1.51-.32,2.85-.46,4a13.9,13.9,0,0,0-.17,2q-1.78,11.92-3,20.4t-2.13,15.92q-.9,7.44-1.94,14.78t-2.66,17.25q4-1.4,11.33-3.32,6.19-1.48,16.48-3.64T250.51,262a4.45,4.45,0,0,0,2.49,3.18,20.51,20.51,0,0,0,3.79,1.25,18,18,0,0,1,3.53,1.16,3.82,3.82,0,0,1,2,3.14q4.53.51,6.2,2.46a6.36,6.36,0,0,1,1.51,4.71,18.82,18.82,0,0,1-1.42,5.79,53.36,53.36,0,0,1-2.58,5.48,4.88,4.88,0,0,0-3.94,1.63,16.88,16.88,0,0,0-2.83,3.92,51.4,51.4,0,0,0-13.17,1.88q-6.53,1.79-11.94,3.4c-.65.11-.87.51-.67,1.22s.06,1.19-.39,1.43a35.65,35.65,0,0,0-14.75.52,117.64,117.64,0,0,0-14.94,4.76q-7.56,2.94-15.31,6.3a75.91,75.91,0,0,1-15.9,4.91,18.69,18.69,0,0,1-6.05-4.58,35.07,35.07,0,0,1-4.5-6.45,61,61,0,0,1-3.42-7.36q-1.49-3.84-2.79-7.34a6.35,6.35,0,0,1,.17-4.36,13.73,13.73,0,0,1,2.08-3.18q1.13-14.52,3.43-29.36t4.22-29a51,51,0,0,0,.7-7.17q.07-3.35.5-6.88-5.61-2.55-11.57-5.8a108.49,108.49,0,0,0-10.32-5q-1.89,4.4-3.7,8.78-6.52,15.69-11.75,31.77a311.19,311.19,0,0,0-8.67,32.64,210.76,210.76,0,0,0-4.19,33.94q-.57,10.62-3.63,16.18a19,19,0,0,1-7.28,7.87,15.53,15.53,0,0,1-9.11,1.83,30.23,30.23,0,0,1-9-2.25A66.13,66.13,0,0,1,85,320.55q-.69-7.62-1-15.72t-.37-16q0-7.86,0-13.93a46.31,46.31,0,0,0,3.19-9.28q1.27-5.31,2.35-10.85t2.17-11.25q1.1-5.7,2.47-10.83a225.81,225.81,0,0,1,9.68-26.93,265.27,265.27,0,0,0,9.85-26.55,13.25,13.25,0,0,0,.65-6,10.73,10.73,0,0,1,.53-5.27,2.41,2.41,0,0,1,1.77-1.66,2.66,2.66,0,0,0,1.83-2,19.79,19.79,0,0,0,1.43-6.19,12.82,12.82,0,0,1,1.85-5.76q1.68-2.56,4.4-7.65a28.24,28.24,0,0,0,3.25-11.05,32.63,32.63,0,0,0,4.92-4.17,50.16,50.16,0,0,1,4.83-4.35,26.63,26.63,0,0,1,5.26-3.21,10.73,10.73,0,0,1,6.43-.69,22.23,22.23,0,0,1,1.22,8.07q-.1,4.26-.22,8.54A46.51,46.51,0,0,0,152,146a11.5,11.5,0,0,0,2.35,5.54,9,9,0,0,1,4.57-.66,2.63,2.63,0,0,1,.61-1.58,4.81,4.81,0,0,1,1.09-.92,4.56,4.56,0,0,0,1.09-.92,2.06,2.06,0,0,0,.33-1.78,73.63,73.63,0,0,0,6.74-3.44,48.43,48.43,0,0,0,6.35-4.36q.75-7.55,1.48-14.58t1.3-14.18q.57-7.14.92-15t.35-17a31.81,31.81,0,0,0-1.77-7.87,37.58,37.58,0,0,0-1.54-3.46,5.17,5.17,0,0,0-2.08-2.14c1.23-.53,2-1.73,2.39-3.6s.15-3.15-.62-3.86a38.89,38.89,0,0,1,8.06-2.9l8.68-2.15q4.28-1,8-2.28a19.28,19.28,0,0,0,6.38-3.38q12-2.41,24.89-5.13l24.17-5a34.17,34.17,0,0,0,9.61-.19,101.67,101.67,0,0,1,11.11-.92,29.26,29.26,0,0,1,10.24,1.44q4.71,1.59,7.33,7.1a10.49,10.49,0,0,1,5.48,1,6.35,6.35,0,0,1,2.59,3,13.24,13.24,0,0,1,.94,4.3,44,44,0,0,0,.52,4.74Q298.29,61.39,288,64.9A212.29,212.29,0,0,1,266.21,71q-11.46,2.59-22.3,4.34a120.39,120.39,0,0,0-17,3.72q-3.3,1-6.37,1.9c-2.05.57-3.93,1.17-5.65,1.77q-.31,7.23-1.06,18.72t-1.52,22.75q-.79,11.25-1.51,19.78c-.49,5.68-.92,8.89-1.3,9.61s-1.57,1.73-3.59,3.05-4.5,3-7.47,5S192.11,166.14,188.27,168.9Z" transform="translate(-83.61 -34.23)"/><path class="a" d="M140.23,80.43a36.93,36.93,0,0,1,.73,3.66,36.93,36.93,0,0,0,.73,3.66q-1,2.44-1.71,4.76c-.48,1.55-1,3-1.46,4.52-.49,1.14-.82,1.87-1,2.2a1.87,1.87,0,0,0-.24.73,2.09,2.09,0,0,0,.12.61,9.82,9.82,0,0,1,.12,2.07l-1,2.93a9.35,9.35,0,0,1-2.93,2.69,34.07,34.07,0,0,1-3.42,1.71,4.19,4.19,0,0,1-1.47.85,4,4,0,0,0-1.46.86l-.73,2.93-3.18.48a31.78,31.78,0,0,1-7.08,1h-2.93q-2.93-2.68-4.64-4.15a29.65,29.65,0,0,0-3.66-2.68c-1.62-2.28-2.52-3.95-2.68-5a17.87,17.87,0,0,0-.74-3A10.37,10.37,0,0,0,100.43,97L97,93.61l2.93-2.2-2.69-4.64c1.95-1.46,3.42-2.52,4.39-3.17a12.54,12.54,0,0,0,2.45-2.07c.64-.74,1.38-1.67,2.19-2.81s2.12-3,3.91-5.62l2.2-3.17,3.17,1.71A11.61,11.61,0,0,0,119.84,73c2.2.41,4.11.77,5.74,1.1a64.25,64.25,0,0,0,7.81,1.83,11.47,11.47,0,0,1,5.86,2.56Z" transform="translate(-83.61 -34.23)"/></svg>